<svg width="15" height="15" viewBox="0 0 15 15" fill="none" xmlns="http://www.w3.org/2000/svg">
<path d="M2.5 5.625C2.5 3.85723 2.5 2.97335 3.04917 2.42417C3.59835 1.875 4.48223 1.875 6.25 1.875H8.75C10.5178 1.875 11.4017 1.875 11.9508 2.42417C12.5 2.97335 12.5 3.85723 12.5 5.625V9.89226C12.5 11.5693 12.5 12.4078 11.9723 12.6643C11.4446 12.9208 10.7853 12.4027 9.46658 11.3666L9.04455 11.035C8.30307 10.4524 7.93233 10.1611 7.5 10.1611C7.06767 10.1611 6.69693 10.4524 5.95545 11.035L5.53341 11.3666C4.21472 12.4027 3.55537 12.9208 3.02768 12.6643C2.5 12.4078 2.5 11.5693 2.5 9.89226V5.625Z" stroke="white"/>
</svg>
