<svg width="10" height="10" viewBox="0 0 10 10" fill="none" xmlns="http://www.w3.org/2000/svg">
<path d="M10 5C10 7.76143 7.76143 10 5 10C2.23857 10 0 7.76143 0 5C0 2.23857 2.23857 0 5 0C7.76143 0 10 2.23857 10 5ZM4.42165 7.64746L8.13133 3.93778C8.2573 3.81181 8.2573 3.60756 8.13133 3.48159L7.67514 3.0254C7.54917 2.89942 7.34492 2.89942 7.21893 3.0254L4.19355 6.05077L2.78107 4.63829C2.6551 4.51232 2.45085 4.51232 2.32486 4.63829L1.86867 5.09448C1.7427 5.22044 1.7427 5.4247 1.86867 5.55066L3.96544 7.64744C4.09143 7.77343 4.29566 7.77343 4.42165 7.64746Z" fill="#FAAB6B"/>
</svg>
