<svg width="67" height="60" viewBox="0 0 67 60" fill="none" xmlns="http://www.w3.org/2000/svg">
<path d="M6.9624 60H59.3534C64.7108 60 68.0504 54.1085 65.3717 49.4164L39.1762 3.51904C36.4976 -1.17301 29.8182 -1.17301 27.1395 3.51904L0.944051 49.4164C-1.73464 54.1085 1.60502 60 6.9624 60ZM33.1579 35.305C31.2445 35.305 29.6791 33.7175 29.6791 31.7772V24.7214C29.6791 22.7811 31.2445 21.1936 33.1579 21.1936C35.0712 21.1936 36.6367 22.7811 36.6367 24.7214V31.7772C36.6367 33.7175 35.0712 35.305 33.1579 35.305ZM36.6367 49.4164H29.6791V42.3607H36.6367V49.4164Z" fill="#EE7700"/>
</svg>
