<svg width="14" height="12" viewBox="0 0 14 12" fill="none" xmlns="http://www.w3.org/2000/svg">
<path d="M7 0L0.5 1.5V2.5L7 1L13.5 2.5V1.5L7 0ZM4 3C2.3865 3 0.8125 3.6565 0.8125 3.6565L0.5 3.7965V11.5H6.1405C6.3145 11.799 6.6305 12 7 12C7.369 12 7.6855 11.799 7.8595 11.5H13.5V3.797L13.1875 3.6565C13.1875 3.6565 11.6135 3 10 3C8.541 3 7.26 3.49 7 3.594C6.74 3.49 5.459 3 4 3ZM4 4C4.967 4 6 4.3125 6.5 4.4845V10.047C5.9435 9.8635 5.0295 9.6095 4 9.6095C2.949 9.6095 2.0935 9.8515 1.5 10.047V4.4845C1.885 4.345 2.9 4 4 4ZM10 4C11.1 4 12.115 4.3455 12.5 4.4845V10.047C11.906 9.852 11.051 9.6095 10 9.6095C8.9705 9.6095 8.0565 9.8635 7.5 10.047V4.4845C8 4.3125 9.033 4 10 4Z" fill="#C4C4C4"/>
</svg>
